/* XPM */
static char *pixil_frame_0_15_1740659906[] = {
/* columns rows colors chars-per-pixel */
"64 64 6 1 ",
"  c #211321",
". c #BD6500",
"X c #FF9800",
"o c #FFC107",
"O c #FFEB3B",
"+ c #8BC34A",
/* pixels */
"++++++++++++++++++++++++++++++++++++++++++++++++++++++++++++++++",
"++++++++++++++++++++++++++++++++++++++++++++++++++++++++++++++++",
"++++++++++++++++++++++++++++++++++++++++++++++++++++++++++++++++",
"++++++++++++++++++++++++++++++++++++++++++++++++++++++++++++++++",
"++++++++++++++++++++++++++++++++++++++++++++++++++++++++++++++++",
"++++++++++++++++++++++++++++++++++++++++++++++++++++++++++++++++",
"++++++++++++++++++++++                    ++++++++++++++++++++++",
"++++++++++++++++++++++                    ++++++++++++++++++++++",
"++++++++++++++++++++                        ++++++++++++++++++++",
"++++++++++++++++++++                        ++++++++++++++++++++",
"++++++++++++++++++      XXooooooooOOOOOO      ++++++++++++++++++",
"++++++++++++++++++      XXooooooooOOOOOO      ++++++++++++++++++",
"++++++++++++++++++    XXooooooooooooooooOO    ++++++++++++++++++",
"++++++++++++++++++    XXooooooooooooooooOO    ++++++++++++++++++",
"++++++++++++++++++    XXoooo        ooooOO    ++++++++++++++++++",
"++++++++++++++++++    XXoooo        ooooOO    ++++++++++++++++++",
"++++++++++++++++++    XXoooo        ooooOO    ++++++++++++++++++",
"++++++++++++++++++    XXoooo        ooooOO    ++++++++++++++++++",
"++++++++++++++++++    XXoooo        ooooOO    ++++++++++++++++++",
"++++++++++++++++++    XXoooo        ooooOO    ++++++++++++++++++",
"++++++++++++++++++      XXoo        oooo      ++++++++++++++++++",
"++++++++++++++++++      XXoo        oooo      ++++++++++++++++++",
"++++++++++++++++++++    XXoooooooooooooo    ++++++++++++++++++++",
"++++++++++++++++++++    XXoooooooooooooo    ++++++++++++++++++++",
"++++++++++++++++++++    XXoooooooooooooo    ++++++++++++++++++++",
"++++++++++++++++++++    XXoooooooooooooo    ++++++++++++++++++++",
"++++++++++++++++++++        XXoooooo        ++++++++++++++++++++",
"++++++++++++++++++++        XXoooooo        ++++++++++++++++++++",
"++++++++++++++++++++++      XXoooooo      ++++++++++++++++++++++",
"++++++++++++++++++++++      XXoooooo      ++++++++++++++++++++++",
"++++++++++++++++++++++++    XXoooooo    ++++++++++++++++++++++++",
"++++++++++++++++++++++++    XXoooooo    ++++++++++++++++++++++++",
"++++++++++++++++++++++++    XXoooooo    ++++++++++++++++++++++++",
"++++++++++++++++++++++++    XXoooooo    ++++++++++++++++++++++++",
"++++++++++++++++++++++++    XXoooooo    ++++++++++++++++++++++++",
"++++++++++++++++++++++++    XXoooooo    ++++++++++++++++++++++++",
"++++++++++++++++++++        XXoooooo    ++++++++++++++++++++++++",
"++++++++++++++++++++        XXoooooo    ++++++++++++++++++++++++",
"++++++++++++++++++          XXoooooo    ++++++++++++++++++++++++",
"++++++++++++++++++          XXoooooo    ++++++++++++++++++++++++",
"++++++++++++++++++    XXXX..XXoooooo    ++++++++++++++++++++++++",
"++++++++++++++++++    XXXX..XXoooooo    ++++++++++++++++++++++++",
"++++++++++++++++++    XXXX..oooooooo    ++++++++++++++++++++++++",
"++++++++++++++++++    XXXX..oooooooo    ++++++++++++++++++++++++",
"++++++++++++++++++    XXXX..oooooooo    ++++++++++++++++++++++++",
"++++++++++++++++++    XXXX..oooooooo    ++++++++++++++++++++++++",
"++++++++++++++++++    XXXX..oooooooo    ++++++++++++++++++++++++",
"++++++++++++++++++    XXXX..oooooooo    ++++++++++++++++++++++++",
"++++++++++++++++++    XXXX..oooooooo    ++++++++++++++++++++++++",
"++++++++++++++++++    XXXX..oooooooo    ++++++++++++++++++++++++",
"++++++++++++++++++    XXXX..XXoooooo    ++++++++++++++++++++++++",
"++++++++++++++++++    XXXX..XXoooooo    ++++++++++++++++++++++++",
"++++++++++++++++++          XXoooooo    ++++++++++++++++++++++++",
"++++++++++++++++++          XXoooooo    ++++++++++++++++++++++++",
"++++++++++++++++++++                    ++++++++++++++++++++++++",
"++++++++++++++++++++                    ++++++++++++++++++++++++",
"++++++++++++++++++++++++++            ++++++++++++++++++++++++++",
"++++++++++++++++++++++++++            ++++++++++++++++++++++++++",
"++++++++++++++++++++++++++++++++++++++++++++++++++++++++++++++++",
"++++++++++++++++++++++++++++++++++++++++++++++++++++++++++++++++",
"++++++++++++++++++++++++++++++++++++++++++++++++++++++++++++++++",
"++++++++++++++++++++++++++++++++++++++++++++++++++++++++++++++++",
"++++++++++++++++++++++++++++++++++++++++++++++++++++++++++++++++",
"++++++++++++++++++++++++++++++++++++++++++++++++++++++++++++++++"
};
