/* XPM */
static char *pixil_frame_0_17_1740664888[] = {
/* columns rows colors chars-per-pixel */
"64 64 3 1 ",
"  c black",
". c #211321",
"X c #8BC34A",
/* pixels */
"XXXXXXXXXXXXXXXXXXXXXXXXXXXXXXXXXXXXXXXXXXXXXXXXXXXXXXXXXXXXXXXX",
"XXXXXXXXXXXXXXXXXXXXXXXXXXXXXXXXXXXXXXXXXXXXXXXXXXXXXXXXXXXXXXXX",
"XXXXXXXXXXXXXX....................................XXXXXXXXXXXXXX",
"XXXXXXXXXXXXXX....................................XXXXXXXXXXXXXX",
"XXXXXXXXXXXX........................................XXXXXXXXXXXX",
"XXXXXXXXXXXX........................................XXXXXXXXXXXX",
"XXXXXXXXXX......                                ......XXXXXXXXXX",
"XXXXXXXXXX......                                ......XXXXXXXXXX",
"XXXXXXXXXX....                                    ......XXXXXXXX",
"XXXXXXXXXX....                                    ......XXXXXXXX",
"XXXXXXXX....                                        ....XXXXXXXX",
"XXXXXXXX....                                        ....XXXXXXXX",
"XXXXXXXX....                                        ....XXXXXXXX",
"XXXXXXXX....                                        ....XXXXXXXX",
"XXXXXX......                                        ......XXXXXX",
"XXXXXX......                                        ......XXXXXX",
"XXXXXX....                                            ....XXXXXX",
"XXXXXX....                                            ....XXXXXX",
"XXXXXX....                                            ....XXXXXX",
"XXXXXX....                                            ....XXXXXX",
"XXXXXX....                                            ....XXXXXX",
"XXXXXX....                                            ....XXXXXX",
"XXXXXX....                                            ....XXXXXX",
"XXXXXX....                                            ....XXXXXX",
"XXXXXX....                                            ....XXXXXX",
"XXXXXX....                                            ....XXXXXX",
"XXXXXX....                                            ....XXXXXX",
"XXXXXX....                                            ....XXXXXX",
"XXXXXX....                                            ....XXXXXX",
"XXXXXX....                                            ....XXXXXX",
"XXXXXX....                                            ....XXXXXX",
"XXXXXX....                                            ....XXXXXX",
"XXXXXX....                                            ....XXXXXX",
"XXXXXX....                                            ....XXXXXX",
"XXXXXX....                                            ....XXXXXX",
"XXXXXX....                                            ....XXXXXX",
"XXXXXX....                                            ....XXXXXX",
"XXXXXX....                                            ....XXXXXX",
"XXXX......                                            ......XXXX",
"XXXX......                                            ......XXXX",
"XXXX....                                                ....XXXX",
"XXXX....                                                ....XXXX",
"XXXX....                                                ....XXXX",
"XXXX....                                                ....XXXX",
"XXXX....                                                ....XXXX",
"XXXX....                                                ....XXXX",
"XXXX....                                                ....XXXX",
"XXXX....                                                ....XXXX",
"XXXX....                                                ....XXXX",
"XXXX....                                                ....XXXX",
"XXXX....                                                ....XXXX",
"XXXX....                                                ....XXXX",
"XXXX....                                                ....XXXX",
"XXXX....                                                ....XXXX",
"XXXX....                                                ....XXXX",
"XXXX....                                                ....XXXX",
"XXXX....                                                ....XXXX",
"XXXX....                                                ....XXXX",
"XXXX........................................................XXXX",
"XXXX........................................................XXXX",
"XXXXXX....................................................XXXXXX",
"XXXXXX....................................................XXXXXX",
"XXXXXXXXXXXXXXXXXXXXXXXXXXXXXXXXXXXXXXXXXXXXXXXXXXXXXXXXXXXXXXXX",
"XXXXXXXXXXXXXXXXXXXXXXXXXXXXXXXXXXXXXXXXXXXXXXXXXXXXXXXXXXXXXXXX"
};
