/* XPM */
static char *pixil_frame_0_16_1740659906[] = {
/* columns rows colors chars-per-pixel */
"64 64 9 1 ",
"  c #261A09",
". c #211321",
"X c gray13",
"o c #402C11",
"O c #40332F",
"+ c #FF9800",
"@ c #FFC107",
"# c #8BC34A",
"$ c gray62",
/* pixels */
"################################################################",
"################################################################",
"##############....................................##############",
"##############....................................##############",
"############........................................############",
"############........................................############",
"##########......OOOOOOOOOOOOOOOOOOOOOOOOOOOOOOOO......##########",
"##########......OOOOOOOOOOOOOOOOOOOOOOOOOOOOOOOO......##########",
"##########....OOOOOOOOOOOOOOOOOOOOOOOOOOOOOOOOOOOO......########",
"##########....OOOOOOOOOOOOOOOOOOOOOOOOOOOOOOOOOOOO......########",
"########....OOOOOOOOOOOOXXXXXXXXXXXXXXXXOOOOOOOOOOOO....########",
"########....OOOOOOOOOOOOXXXXXXXXXXXXXXXXOOOOOOOOOOOO....########",
"########....OOOOOOOOXXXXXXXXXXXXXXXXXXXXXXXXOOOOOOOO....########",
"########....OOOOOOOOXXXXXXXXXXXXXXXXXXXXXXXXOOOOOOOO....########",
"######......OOOOOOXXXXXXXX$$$$$$$$$$$$XXXXXXXXOOOOOO......######",
"######......OOOOOOXXXXXXXX$$$$$$$$$$$$XXXXXXXXOOOOOO......######",
"######....OOOOOOOOXXXX$$$$$$$$$$$$$$$$$$$$XXXXOOOOOOOO....######",
"######....OOOOOOOOXXXX$$$$$$$$$$$$$$$$$$$$XXXXOOOOOOOO....######",
"######....OOOOOOXXXXXX$$$$$$XXXXXXXX$$$$$$XXXXXXOOOOOO....######",
"######....OOOOOOXXXXXX$$$$$$XXXXXXXX$$$$$$XXXXXXOOOOOO....######",
"######....OOOOOOXXXX$$$$$$XXXXXXXXXXXX$$$$$$XXXXOOOOOO....######",
"######....OOOOOOXXXX$$$$$$XXXXXXXXXXXX$$$$$$XXXXOOOOOO....######",
"######....OOOOOOXXXX$$$$XXXXXXOOOOXXXXXX$$$$XXXXOOOOOO....######",
"######....OOOOOOXXXX$$$$XXXXXXOOOOXXXXXX$$$$XXXXOOOOOO....######",
"######....OOOOOOXXXX$$$$XXXXOOOOOOOOXXXX$$$$XXXXOOOOOO....######",
"######....OOOOOOXXXX$$$$XXXXOOOOOOOOXXXX$$$$XXXXOOOOOO....######",
"######....OOOOOOXXXX$$$$XXXXOOOOOOOOXXXX$$$$XXXXOOOOOO....######",
"######....OOOOOOXXXX$$$$XXXXOOOOOOOOXXXX$$$$XXXXOOOOOO....######",
"######....OOOOOO                                OOOOOO....######",
"######....OOOOOO                                OOOOOO....######",
"######....OOOOOO                                OOOOOO....######",
"######....OOOOOO                                OOOOOO....######",
"######....OOOO      ++++@@@@@@@@@@@@@@@@@@@@      OOOO....######",
"######....OOOO      ++++@@@@@@@@@@@@@@@@@@@@      OOOO....######",
"######....OOOO    ++++++@@@@@@@@@@@@@@@@@@@@@@    OOOO....######",
"######....OOOO    ++++++@@@@@@@@@@@@@@@@@@@@@@    OOOO....######",
"######....OOOO    ++++@@@@@@oooooooo@@@@@@@@@@    OOOO....######",
"######....OOOO    ++++@@@@@@oooooooo@@@@@@@@@@    OOOO....######",
"####......OOOO    ++++@@@@@@oooooooo@@@@@@@@@@    OOOO......####",
"####......OOOO    ++++@@@@@@oooooooo@@@@@@@@@@    OOOO......####",
"####....OOOOOO    ++++@@@@@@oooooooo@@@@@@@@@@    OOOOOO....####",
"####....OOOOOO    ++++@@@@@@oooooooo@@@@@@@@@@    OOOOOO....####",
"####....OOOOOO    ++++@@@@@@@@oooo@@@@@@@@@@@@    OOOOOO....####",
"####....OOOOOO    ++++@@@@@@@@oooo@@@@@@@@@@@@    OOOOOO....####",
"####....OOOOOO    ++++@@@@@@@@oooo@@@@@@@@@@@@    OOOOOO....####",
"####....OOOOOO    ++++@@@@@@@@oooo@@@@@@@@@@@@    OOOOOO....####",
"####....OOOOOO    ++++++@@@@@@@@@@@@@@@@@@@@@@    OOOOOO....####",
"####....OOOOOO    ++++++@@@@@@@@@@@@@@@@@@@@@@    OOOOOO....####",
"####....OOOOOO    ++++++++++@@@@@@@@@@@@@@@@@@    OOOOOO....####",
"####....OOOOOO    ++++++++++@@@@@@@@@@@@@@@@@@    OOOOOO....####",
"####....OOOOOO                                    OOOOOO....####",
"####....OOOOOO                                    OOOOOO....####",
"####....OOOOOOOO                                OOOOOOOO....####",
"####....OOOOOOOO                                OOOOOOOO....####",
"####....OOOOOOOOOOOOOOOOOOOOOOOOOOOOOOOOOOOOOOOOOOOOOOOO....####",
"####....OOOOOOOOOOOOOOOOOOOOOOOOOOOOOOOOOOOOOOOOOOOOOOOO....####",
"####....OOOOOOOOOOOOOOOOOOOOOOOOOOOOOOOOOOOOOOOOOOOOOOOO....####",
"####....OOOOOOOOOOOOOOOOOOOOOOOOOOOOOOOOOOOOOOOOOOOOOOOO....####",
"####........................................................####",
"####........................................................####",
"######....................................................######",
"######....................................................######",
"################################################################",
"################################################################"
};
