/* XPM */
static char *pixil_frame_0_31__1_1741098872[] = {
/* columns rows colors chars-per-pixel */
"64 64 6 1 ",
"  c black",
". c white",
"X c #FFEB3B",
"o c #FFC107",
"O c #FF9800",
"+ c #BD6500",
/* pixels */
"                                                                ",
"                                                                ",
"                                                                ",
"                                                                ",
"                                                                ",
"                                                                ",
"                                                                ",
"                                                                ",
"                                                                ",
"                                                                ",
"                                                                ",
"                                                                ",
"                                                                ",
"                                                                ",
"                                                                ",
"                                                                ",
"                                                                ",
"                                                                ",
"          ............                                          ",
"          ............                                          ",
"        ....................                                    ",
"        ....................                                    ",
"      ......XXXXXXXX..........                                  ",
"      ......XXXXXXXX..........                                  ",
"      ....XXoooooooooooooo..............................        ",
"      ....XXoooooooooooooo..............................        ",
"      ....XXoooooooooooooo................................      ",
"      ....XXoooooooooooooo................................      ",
"      ....XXoo........oooooooooooooooooooooooooooooooo....      ",
"      ....XXoo........oooooooooooooooooooooooooooooooo....      ",
"      ....oooo........oooooooooooooooooooooooooooooooo....      ",
"      ....oooo........oooooooooooooooooooooooooooooooo....      ",
"      ....oooo........oooooooooooooooooooooooooooooooo....      ",
"      ....oooo........oooooooooooooooooooooooooooooooo....      ",
"      ....oooo........ooooOOOOOOOOOOOOOOOOooooooooOOOO....      ",
"      ....oooo........ooooOOOOOOOOOOOOOOOOooooooooOOOO....      ",
"      ....oooooooooooooooo..............++++++++++++......      ",
"      ....oooooooooooooooo..............++++++++++++......      ",
"      ....OOooooooooOOOOOO..............OOOOOOOOOOOO....        ",
"      ....OOooooooooOOOOOO..............OOOOOOOOOOOO....        ",
"      ......OOOOOOOO..........      ....OOOOOOOOOOOO....        ",
"      ......OOOOOOOO..........      ....OOOOOOOOOOOO....        ",
"        ....................        ....................        ",
"        ....................        ....................        ",
"          ............                ................          ",
"          ............                ................          ",
"                                                                ",
"                                                                ",
"                                                                ",
"                                                                ",
"                                                                ",
"                                                                ",
"                                                                ",
"                                                                ",
"                                                                ",
"                                                                ",
"                                                                ",
"                                                                ",
"                                                                ",
"                                                                ",
"                                                                ",
"                                                                ",
"                                                                ",
"                                                                "
};
