/* XPM */
static char *pixil_frame_0_32_1741096273[] = {
/* columns rows colors chars-per-pixel */
"64 64 6 1 ",
"  c black",
". c gray24",
"X c #543D36",
"o c #795548",
"O c gray62",
"+ c white",
/* pixels */
"                                                                ",
"                                                                ",
"                                                                ",
"                                                                ",
"                                                                ",
"                                                                ",
"                                                                ",
"                                                                ",
"                                                                ",
"                                                                ",
"                                                                ",
"                                                                ",
"                                                                ",
"                                                                ",
"              ++++++      ++++++                                ",
"              ++++++      ++++++                                ",
"            ++++++++++++++++++++++                              ",
"            ++++++++++++++++++++++                              ",
"          ++++++oooo++++++oooo++++                              ",
"          ++++++oooo++++++oooo++++                              ",
"        ++++++++oooooooooooooo++++                              ",
"        ++++++++oooooooooooooo++++                              ",
"        ++++oooooooooooooooooo++++++                            ",
"        ++++oooooooooooooooooo++++++                            ",
"        ++++oooooooooooooooooooo++++                            ",
"        ++++oooooooooooooooooooo++++                            ",
"        ++++oooooooooooooooooooo++++++++                        ",
"        ++++oooooooooooooooooooo++++++++                        ",
"        ++++ooooooooooooooooooOOOO++++++++++++                  ",
"        ++++ooooooooooooooooooOOOO++++++++++++                  ",
"        ++++ooooooooooooooOOOOoooooooo++++++++++                ",
"        ++++ooooooooooooooOOOOoooooooo++++++++++                ",
"        ++++ooooooooooooOOOOooooooooooOOoooo++++++++++++        ",
"        ++++ooooooooooooOOOOooooooooooOOoooo++++++++++++        ",
"        ++++OOOOooooooooooooooooooOOOOooooooOOooOO++++++++      ",
"        ++++OOOOooooooooooooooooooOOOOooooooOOooOO++++++++      ",
"      ++++++OOOOooooooooooooooooooooooooooOOooooOOOOOO++++      ",
"      ++++++OOOOooooooooooooooooooooooooooOOooooOOOOOO++++      ",
"      ++++OOOOOOooooooooooooooooooooooooooOOooooOOOOOO++++      ",
"      ++++OOOOOOooooooooooooooooooooooooooOOooooOOOOOO++++      ",
"      ++++OOOOOOOOooooooooooooooooooooooooooooooOOOOOO++++      ",
"      ++++OOOOOOOOooooooooooooooooooooooooooooooOOOOOO++++      ",
"      ++++..OOOOOOOOooooooooooooooooooooooooooOOOOOOOO++++      ",
"      ++++..OOOOOOOOooooooooooooooooooooooooooOOOOOOOO++++      ",
"      ++++++........XXXXXXXXXXXXXXXXXXXXXXXXXX......++++++      ",
"      ++++++........XXXXXXXXXXXXXXXXXXXXXXXXXX......++++++      ",
"      ++++++........XXXXXXXXXXXXXXXXXXXXXXXXXX......++++++      ",
"      ++++++........XXXXXXXXXXXXXXXXXXXXXXXXXX......++++++      ",
"        ++++++++++++++++++++++++++++++++++++++++++++++++        ",
"        ++++++++++++++++++++++++++++++++++++++++++++++++        ",
"          ++++++++++++++++++++++++++++++++++++++++++++          ",
"          ++++++++++++++++++++++++++++++++++++++++++++          ",
"                                                                ",
"                                                                ",
"                                                                ",
"                                                                ",
"                                                                ",
"                                                                ",
"                                                                ",
"                                                                ",
"                                                                ",
"                                                                ",
"                                                                ",
"                                                                "
};
