/* XPM */
static char *pixil_frame_0_27_1741014201[] = {
/* columns rows colors chars-per-pixel */
"64 64 8 1 ",
"  c #211321",
". c #3D4E57",
"X c #455D69",
"o c #D50000",
"O c #8BC34A",
"+ c #607D8B",
"@ c gray62",
"# c #FFEBEE",
/* pixels */
"OOOOOOOOOO      OOOOOOOOOOOOOOOOOOOOOOOOOO      OOOOOOOOOOOOOOOO",
"OOOOOOOOOO      OOOOOOOOOOOOOOOOOOOOOOOOOO      OOOOOOOOOOOOOOOO",
"OOOOOOOOOO      OOOOOOOOOOOOOOOOOOOOOOOO          OOOOOOOOOOOOOO",
"OOOOOOOOOO      OOOOOOOOOOOOOOOOOOOOOOOO          OOOOOOOOOOOOOO",
"OOOOOOOO          OOOOOOOOOOOOOOOOOOOOOO    ##    OOOOOOOOOOOOOO",
"OOOOOOOO          OOOOOOOOOOOOOOOOOOOOOO    ##    OOOOOOOOOOOOOO",
"OOOOOOOO    ##                            ##@@    OOOOOOOOOOOOOO",
"OOOOOOOO    ##                            ##@@    OOOOOOOOOOOOOO",
"OOOOOOOO    @@                            ##@@      OOOOOOOOOOOO",
"OOOOOOOO    @@                            ##@@      OOOOOOOOOOOO",
"OOOOOO      @@    ....++++++++++++++++    ##@@@@    OOOOOOOOOOOO",
"OOOOOO      @@    ....++++++++++++++++    ##@@@@    OOOOOOOOOOOO",
"OOOOOO    ##@@    ....++++++++++++++++    ##@@@@    OOOOOOOOOOOO",
"OOOOOO    ##@@    ....++++++++++++++++    ##@@@@    OOOOOOOOOOOO",
"OOOOOO    ##@@      ..++++++++++++        @@@@@@    OOOOOOOOOOOO",
"OOOOOO    ##@@      ..++++++++++++        @@@@@@    OOOOOOOOOOOO",
"OOOOOO      @@          ++++++      ++    @@@@      OOOOOOOOOOOO",
"OOOOOO      @@          ++++++      ++    @@@@      OOOOOOOOOOOO",
"OOOOOOOO          ..  oo++++++oooo  ++++    @@    OOOOOOOOOOOOOO",
"OOOOOOOO          ..  oo++++++oooo  ++++    @@    OOOOOOOOOOOOOO",
"OOOOOOOOOO        ..  oo++++++oooo  ++++        OOOOOOOOOOOOOOOO",
"OOOOOOOOOO        ..  oo++++++oooo  ++++        OOOOOOOOOOOOOOOO",
"OOOOOOOOOOOO      ....++++++++++++++++++++      OOOOOOOOOOOOOOOO",
"OOOOOOOOOOOO      ....++++++++++++++++++++      OOOOOOOOOOOOOOOO",
"OOOOOOOOOOOOOO    ....++  ++++  ++++++++++++    OOOOOOOOOOOOOOOO",
"OOOOOOOOOOOOOO    ....++  ++++  ++++++++++++    OOOOOOOOOOOOOOOO",
"OOOOOOOOOOOOOO    ....##++####++##++++++++++    OOOOOOOOOOOOOOOO",
"OOOOOOOOOOOOOO    ....##++####++##++++++++++    OOOOOOOOOOOOOOOO",
"OOOOOOOOOOOOOO    ....++##++++##++++++++++++    OOOOOOOOOOOOOOOO",
"OOOOOOOOOOOOOO    ....++##++++##++++++++++++    OOOOOOOOOOOOOOOO",
"OOOOOOOOOOOOOO          ++++++++++++            OOOOOOOOOOOOOOOO",
"OOOOOOOOOOOOOO          ++++++++++++            OOOOOOOOOOOOOOOO",
"OOOOOOOOOOOOOO          ++++++++++++            OOOOOOOOOOOOOOOO",
"OOOOOOOOOOOOOO          ++++++++++++            OOOOOOOOOOOOOOOO",
"OOOOOO            ....++            ++++++            OOOOOOOOOO",
"OOOOOO            ....++            ++++++            OOOOOOOOOO",
"OOOO              ....++            ++++                OOOOOOOO",
"OOOO              ....++            ++++                OOOOOOOO",
"OOOO    ..++++    ....++++++++++++++++++    ..++++++    OOOOOOOO",
"OOOO    ..++++    ....++++++++++++++++++    ..++++++    OOOOOOOO",
"OOOO    ..++++    ....++++++++++++++++++    ..++++++    OOOOOOOO",
"OOOO    ..++++    ....++++++++++++++++++    ..++++++    OOOOOOOO",
"OOOO    ..++++    ....++++++++++++++++++    ..++++++      OOOOOO",
"OOOO    ..++++    ....++++++++++++++++++    ..++++++      OOOOOO",
"OOOO    ......    ....++++XXXXXXXXXX++++    ........##    OOOOOO",
"OOOO    ......    ....++++XXXXXXXXXX++++    ........##    OOOOOO",
"OOOO    ##  ##    ....++XX..........XXXX    ##  ##        OOOOOO",
"OOOO    ##  ##    ....++XX..........XXXX    ##  ##        OOOOOO",
"OOOO              ....++XX..........XXXX                OOOOOOOO",
"OOOO              ....++XX..........XXXX                OOOOOOOO",
"OOOOOO            ........          ......          OOOOOOOOOOOO",
"OOOOOO            ........          ......          OOOOOOOOOOOO",
"OOOOOOOOOOOOOO    ........          ........    OOOOOOOOOOOOOOOO",
"OOOOOOOOOOOOOO    ........          ........    OOOOOOOOOOOOOOOO",
"OOOOOOOOOOOOOO                OOOO              OOOOOOOOOOOOOOOO",
"OOOOOOOOOOOOOO                OOOO              OOOOOOOOOOOOOOOO",
"OOOOOOOOOOOOOO                OOOO              OOOOOOOOOOOOOOOO",
"OOOOOOOOOOOOOO                OOOO              OOOOOOOOOOOOOOOO",
"OOOOOOOOOOOOOOOOOOOOOOOOOOOOOOOOOOOOOOOOOOOOOOOOOOOOOOOOOOOOOOOO",
"OOOOOOOOOOOOOOOOOOOOOOOOOOOOOOOOOOOOOOOOOOOOOOOOOOOOOOOOOOOOOOOO",
"OOOOOOOOOOOOOOOOOOOOOOOOOOOOOOOOOOOOOOOOOOOOOOOOOOOOOOOOOOOOOOOO",
"OOOOOOOOOOOOOOOOOOOOOOOOOOOOOOOOOOOOOOOOOOOOOOOOOOOOOOOOOOOOOOOO",
"OOOOOOOOOOOOOOOOOOOOOOOOOOOOOOOOOOOOOOOOOOOOOOOOOOOOOOOOOOOOOOOO",
"OOOOOOOOOOOOOOOOOOOOOOOOOOOOOOOOOOOOOOOOOOOOOOOOOOOOOOOOOOOOOOOO"
};
