/* XPM */
static char *pixil_frame_0_28_1741014376[] = {
/* columns rows colors chars-per-pixel */
"64 64 8 1 ",
"  c #1F111F",
". c #3D4E57",
"X c #455D69",
"o c #8BC34A",
"O c #607D8B",
"+ c gray62",
"@ c #FFEBEE",
"# c white",
/* pixels */
"oooooooooooo      oooooooooooooooooooooooooooo      oooooooooooo",
"oooooooooooo      oooooooooooooooooooooooooooo      oooooooooooo",
"oooooooooo    @@    oooooooooooooooooooooooo    @@    oooooooooo",
"oooooooooo    @@    oooooooooooooooooooooooo    @@    oooooooooo",
"oooooooo      @@    oooooooooooooooooooooooo    @@    oooooooooo",
"oooooooo      @@    oooooooooooooooooooooooo    @@    oooooooooo",
"oooooooo    @@++++                            ++++@@    oooooooo",
"oooooooo    @@++++                            ++++@@    oooooooo",
"oooooooo    @@++++                            ++++@@    oooooooo",
"oooooooo    @@++++                            ++++@@    oooooooo",
"oooooooo    ++++++    ..OOOOOOOOOOOOOOOOOO    ++++++    oooooooo",
"oooooooo    ++++++    ..OOOOOOOOOOOOOOOOOO    ++++++    oooooooo",
"oooooooo    ++++      ..OOOOOOOOOOOOOOOOOO      ++++    oooooooo",
"oooooooo    ++++      ..OOOOOOOOOOOOOOOOOO      ++++    oooooooo",
"oooooooo    ++++      ..OOOOOOOOOOOOOOOOOO      ++++    oooooooo",
"oooooooo    ++++      ..OOOOOOOOOOOOOOOOOO      ++++    oooooooo",
"oooooooo      ++    ....OOOOOOOOOOOOOOOOOOOO    ++      oooooooo",
"oooooooo      ++    ....OOOOOOOOOOOOOOOOOOOO    ++      oooooooo",
"oooooooooo          ....OOOOOOOOOOOOOOOOOOOO          oooooooooo",
"oooooooooo          ....OOOOOOOOOOOOOOOOOOOO          oooooooooo",
"oooooooooooo        ....OOOOOOOOOOOOOOOOOOOO        oooooooooooo",
"oooooooooooo        ....OOOOOOOOOOOOOOOOOOOO        oooooooooooo",
"oooooooooooooo      ....OOOOOOOOOOOOOOOOOOOO      oooooooooooooo",
"oooooooooooooo      ....OOOOOOOOOOOOOOOOOOOO      oooooooooooooo",
"oooooooooooooooo    ....OOOOOOOOOOOOOOOOOOOO    oooooooooooooooo",
"oooooooooooooooo    ....OOOOOOOOOOOOOOOOOOOO    oooooooooooooooo",
"oooooooooooooooo    ....OOOOOOOOOOOOOOOOOOOO    oooooooooooooooo",
"oooooooooooooooo    ....OOOOOOOOOOOOOOOOOOOO    oooooooooooooooo",
"oooooooooooooooo    ....OOOOOOOOOOOOOOOOOOOO    oooooooooooooooo",
"oooooooooooooooo    ....OOOOOOOOOOOOOOOOOOOO    oooooooooooooooo",
"oooooooooooooooo          OOOOOOOOOOOO          oooooooooooooooo",
"oooooooooooooooo          OOOOOOOOOOOO          oooooooooooooooo",
"oooooooooooooooo            OOOOOOOO            oooooooooooooooo",
"oooooooooooooooo            OOOOOOOO            oooooooooooooooo",
"oooooooo            ....OO            OOOOOO            oooooooo",
"oooooooo            ....OO            OOOOOO            oooooooo",
"oooooo              ....OOOO        OOOOOOOO              oooooo",
"oooooo              ....OOOO        OOOOOOOO              oooooo",
"oooooo    ..OOOO    ....OOOOOOOOOOOOOOOOOOOO    OOOOOO    oooooo",
"oooooo    ..OOOO    ....OOOOOOOOOOOOOOOOOOOO    OOOOOO    oooooo",
"oooooo    ..OOOO    ....OOOOOOOOOOOOOOOOOOOO    OOOOOO    oooooo",
"oooooo    ..OOOO    ....OOOOOOOOOOOOOOOOOOOO    OOOOOO    oooooo",
"oooooo    ##OOOO    ....OOOOOOOOOOOOOOOOOOOO    OOOO##    oooooo",
"oooooo    ##OOOO    ....OOOOOOOOOOOOOOOOOOOO    OOOO##    oooooo",
"oooooo    ..OOOO    ....OOXXXXXXXXXXXXOOOOOO    OOOOOO    oooooo",
"oooooo    ..OOOO    ....OOXXXXXXXXXXXXOOOOOO    OOOOOO    oooooo",
"oooooo    ##..##    ....XX............XXOOOO    ##..##    oooooo",
"oooooo    ##..##    ....XX............XXOOOO    ##..##    oooooo",
"oooooo              ....XX............XXOOOO              oooooo",
"oooooo              ....XX............XXOOOO              oooooo",
"oooooooo            ......            ......            oooooooo",
"oooooooo            ......            ......            oooooooo",
"oooooooooooooooo    ......            ......    oooooooooooooooo",
"oooooooooooooooo    ......            ......    oooooooooooooooo",
"oooooooooooooooo              oooo              oooooooooooooooo",
"oooooooooooooooo              oooo              oooooooooooooooo",
"oooooooooooooooo              oooo              oooooooooooooooo",
"oooooooooooooooo              oooo              oooooooooooooooo",
"oooooooooooooooooooooooooooooooooooooooooooooooooooooooooooooooo",
"oooooooooooooooooooooooooooooooooooooooooooooooooooooooooooooooo",
"oooooooooooooooooooooooooooooooooooooooooooooooooooooooooooooooo",
"oooooooooooooooooooooooooooooooooooooooooooooooooooooooooooooooo",
"oooooooooooooooooooooooooooooooooooooooooooooooooooooooooooooooo",
"oooooooooooooooooooooooooooooooooooooooooooooooooooooooooooooooo"
};
