/* XPM */
static char *pixil_frame_0_21_1740995602[] = {
/* columns rows colors chars-per-pixel */
"64 64 8 1 ",
"  c #211321",
". c #3D4E57",
"X c #455D69",
"o c #D50000",
"O c #8BC34A",
"+ c #607D8B",
"@ c gray62",
"# c #FFEBEE",
/* pixels */
"OOOOOOOOOOOOOOOO      OOOOOOOOOOOOOOOOOOOOOOOOOO      OOOOOOOOOO",
"OOOOOOOOOOOOOOOO      OOOOOOOOOOOOOOOOOOOOOOOOOO      OOOOOOOOOO",
"OOOOOOOOOOOOOO          OOOOOOOOOOOOOOOOOOOOOOOO      OOOOOOOOOO",
"OOOOOOOOOOOOOO          OOOOOOOOOOOOOOOOOOOOOOOO      OOOOOOOOOO",
"OOOOOOOOOOOOOO    ##    OOOOOOOOOOOOOOOOOOOOOO          OOOOOOOO",
"OOOOOOOOOOOOOO    ##    OOOOOOOOOOOOOOOOOOOOOO          OOOOOOOO",
"OOOOOOOOOOOOOO    @@##                            ##    OOOOOOOO",
"OOOOOOOOOOOOOO    @@##                            ##    OOOOOOOO",
"OOOOOOOOOOOO      @@##                            @@    OOOOOOOO",
"OOOOOOOOOOOO      @@##                            @@    OOOOOOOO",
"OOOOOOOOOOOO    @@@@##    ++++++++++++++++++++    @@      OOOOOO",
"OOOOOOOOOOOO    @@@@##    ++++++++++++++++++++    @@      OOOOOO",
"OOOOOOOOOOOO    @@@@##    ++++++++++++++++++++    @@##    OOOOOO",
"OOOOOOOOOOOO    @@@@##    ++++++++++++++++++++    @@##    OOOOOO",
"OOOOOOOOOOOO    @@@@@@        ++++++++++++++      @@##    OOOOOO",
"OOOOOOOOOOOO    @@@@@@        ++++++++++++++      @@##    OOOOOO",
"OOOOOOOOOOOO      @@@@    ++      ++++++          @@      OOOOOO",
"OOOOOOOOOOOO      @@@@    ++      ++++++          @@      OOOOOO",
"OOOOOOOOOOOOOO    @@    ++++  oooo++++++oo  ++          OOOOOOOO",
"OOOOOOOOOOOOOO    @@    ++++  oooo++++++oo  ++          OOOOOOOO",
"OOOOOOOOOOOOOOOO        ++++  oooo++++++oo  ++        OOOOOOOOOO",
"OOOOOOOOOOOOOOOO        ++++  oooo++++++oo  ++        OOOOOOOOOO",
"OOOOOOOOOOOOOOOO      ..++++++++++++++++++++++      OOOOOOOOOOOO",
"OOOOOOOOOOOOOOOO      ..++++++++++++++++++++++      OOOOOOOOOOOO",
"OOOOOOOOOOOOOOOO    ....++++++++  ++++  ++++++    OOOOOOOOOOOOOO",
"OOOOOOOOOOOOOOOO    ....++++++++  ++++  ++++++    OOOOOOOOOOOOOO",
"OOOOOOOOOOOOOOOO    ....++++++##++####++##++++    OOOOOOOOOOOOOO",
"OOOOOOOOOOOOOOOO    ....++++++##++####++##++++    OOOOOOOOOOOOOO",
"OOOOOOOOOOOOOOOO    ....++++++++##++++##++++++    OOOOOOOOOOOOOO",
"OOOOOOOOOOOOOOOO    ....++++++++##++++##++++++    OOOOOOOOOOOOOO",
"OOOOOOOOOOOOOOOO            ++++++++++++          OOOOOOOOOOOOOO",
"OOOOOOOOOOOOOOOO            ++++++++++++          OOOOOOOOOOOOOO",
"OOOOOOOOOOOOOOOO            ++++++++++++          OOOOOOOOOOOOOO",
"OOOOOOOOOOOOOOOO            ++++++++++++          OOOOOOOOOOOOOO",
"OOOOOOOOOO            ..++++            ++++++            OOOOOO",
"OOOOOOOOOO            ..++++            ++++++            OOOOOO",
"OOOOOOOO                ++++            ++++++              OOOO",
"OOOOOOOO                ++++            ++++++              OOOO",
"OOOOOOOO    ..++++++    ++++++++++++++++++++++    ++++++    OOOO",
"OOOOOOOO    ..++++++    ++++++++++++++++++++++    ++++++    OOOO",
"OOOOOOOO    ..++++++    ++++++++++++++++++++++    ++++++    OOOO",
"OOOOOOOO    ..++++++    ++++++++++++++++++++++    ++++++    OOOO",
"OOOOOO      ..++++++    ++++++++++++++++++++++    ++++++    OOOO",
"OOOOOO      ..++++++    ++++++++++++++++++++++    ++++++    OOOO",
"OOOOOO    ##........    ++++XXXXXXXXXX++++++++    ......    OOOO",
"OOOOOO    ##........    ++++XXXXXXXXXX++++++++    ......    OOOO",
"OOOOOO        ##  ##    XXXX..........XX++++++    ##  ##    OOOO",
"OOOOOO        ##  ##    XXXX..........XX++++++    ##  ##    OOOO",
"OOOOOOOO                XXXX..........XX++++++              OOOO",
"OOOOOOOO                XXXX..........XX++++++              OOOO",
"OOOOOOOOOOOO          ......          ........            OOOOOO",
"OOOOOOOOOOOO          ......          ........            OOOOOO",
"OOOOOOOOOOOOOOOO    ........          ........    OOOOOOOOOOOOOO",
"OOOOOOOOOOOOOOOO    ........          ........    OOOOOOOOOOOOOO",
"OOOOOOOOOOOOOOOO              OOOO                OOOOOOOOOOOOOO",
"OOOOOOOOOOOOOOOO              OOOO                OOOOOOOOOOOOOO",
"OOOOOOOOOOOOOOOO              OOOO                OOOOOOOOOOOOOO",
"OOOOOOOOOOOOOOOO              OOOO                OOOOOOOOOOOOOO",
"OOOOOOOOOOOOOOOOOOOOOOOOOOOOOOOOOOOOOOOOOOOOOOOOOOOOOOOOOOOOOOOO",
"OOOOOOOOOOOOOOOOOOOOOOOOOOOOOOOOOOOOOOOOOOOOOOOOOOOOOOOOOOOOOOOO",
"OOOOOOOOOOOOOOOOOOOOOOOOOOOOOOOOOOOOOOOOOOOOOOOOOOOOOOOOOOOOOOOO",
"OOOOOOOOOOOOOOOOOOOOOOOOOOOOOOOOOOOOOOOOOOOOOOOOOOOOOOOOOOOOOOOO",
"OOOOOOOOOOOOOOOOOOOOOOOOOOOOOOOOOOOOOOOOOOOOOOOOOOOOOOOOOOOOOOOO",
"OOOOOOOOOOOOOOOOOOOOOOOOOOOOOOOOOOOOOOOOOOOOOOOOOOOOOOOOOOOOOOOO"
};
