/* XPM */
static char *pixil_frame_0_26_1741013969[] = {
/* columns rows colors chars-per-pixel */
"64 64 9 1 ",
"  c #1F111F",
". c #3D4E57",
"X c #455D69",
"o c #D50000",
"O c #8BC34A",
"+ c #607D8B",
"@ c gray62",
"# c #FFEBEE",
"$ c white",
/* pixels */
"OOOOOOOOOOOO      OOOOOOOOOOOOOOOOOOOOOOOOOOOO      OOOOOOOOOOOO",
"OOOOOOOOOOOO      OOOOOOOOOOOOOOOOOOOOOOOOOOOO      OOOOOOOOOOOO",
"OOOOOOOOOO    ##    OOOOOOOOOOOOOOOOOOOOOOOO    ##    OOOOOOOOOO",
"OOOOOOOOOO    ##    OOOOOOOOOOOOOOOOOOOOOOOO    ##    OOOOOOOOOO",
"OOOOOOOO      ##    OOOOOOOOOOOOOOOOOOOOOOOO    ##    OOOOOOOOOO",
"OOOOOOOO      ##    OOOOOOOOOOOOOOOOOOOOOOOO    ##    OOOOOOOOOO",
"OOOOOOOO    ##@@@@                            @@@@##    OOOOOOOO",
"OOOOOOOO    ##@@@@                            @@@@##    OOOOOOOO",
"OOOOOOOO    ##@@@@                            @@@@##    OOOOOOOO",
"OOOOOOOO    ##@@@@                            @@@@##    OOOOOOOO",
"OOOOOOOO    @@@@@@    ..++++++++++++++++++    @@@@@@    OOOOOOOO",
"OOOOOOOO    @@@@@@    ..++++++++++++++++++    @@@@@@    OOOOOOOO",
"OOOOOOOO    @@@@      ..++++++++++++++++++      @@@@    OOOOOOOO",
"OOOOOOOO    @@@@      ..++++++++++++++++++      @@@@    OOOOOOOO",
"OOOOOOOO    @@@@          ++++++++++++          @@@@    OOOOOOOO",
"OOOOOOOO    @@@@          ++++++++++++          @@@@    OOOOOOOO",
"OOOOOOOO      @@    ..      ++++++++      ++    @@      OOOOOOOO",
"OOOOOOOO      @@    ..      ++++++++      ++    @@      OOOOOOOO",
"OOOOOOOOOO          ....  oo++++++++oo  ++++          OOOOOOOOOO",
"OOOOOOOOOO          ....  oo++++++++oo  ++++          OOOOOOOOOO",
"OOOOOOOOOOOO        ....  oo++++++++oo  ++++        OOOOOOOOOOOO",
"OOOOOOOOOOOO        ....  oo++++++++oo  ++++        OOOOOOOOOOOO",
"OOOOOOOOOOOOOO      ....++++++++++++++++++++      OOOOOOOOOOOOOO",
"OOOOOOOOOOOOOO      ....++++++++++++++++++++      OOOOOOOOOOOOOO",
"OOOOOOOOOOOOOOOO    ....++++  ++++  ++++++++    OOOOOOOOOOOOOOOO",
"OOOOOOOOOOOOOOOO    ....++++  ++++  ++++++++    OOOOOOOOOOOOOOOO",
"OOOOOOOOOOOOOOOO    ....++##++####++##++++++    OOOOOOOOOOOOOOOO",
"OOOOOOOOOOOOOOOO    ....++##++####++##++++++    OOOOOOOOOOOOOOOO",
"OOOOOOOOOOOOOOOO    ....++++##++++##++++++++    OOOOOOOOOOOOOOOO",
"OOOOOOOOOOOOOOOO    ....++++##++++##++++++++    OOOOOOOOOOOOOOOO",
"OOOOOOOOOOOOOOOO          ++++++++++++          OOOOOOOOOOOOOOOO",
"OOOOOOOOOOOOOOOO          ++++++++++++          OOOOOOOOOOOOOOOO",
"OOOOOOOOOOOOOOOO            ++++++++            OOOOOOOOOOOOOOOO",
"OOOOOOOOOOOOOOOO            ++++++++            OOOOOOOOOOOOOOOO",
"OOOOOOOO            ....++            ++++++            OOOOOOOO",
"OOOOOOOO            ....++            ++++++            OOOOOOOO",
"OOOOOO              ....++++        ++++++++              OOOOOO",
"OOOOOO              ....++++        ++++++++              OOOOOO",
"OOOOOO    ..++++    ....++++++++++++++++++++    ++++++    OOOOOO",
"OOOOOO    ..++++    ....++++++++++++++++++++    ++++++    OOOOOO",
"OOOOOO    ..++++    ....++++++++++++++++++++    ++++++    OOOOOO",
"OOOOOO    ..++++    ....++++++++++++++++++++    ++++++    OOOOOO",
"OOOOOO    $$++++    ....++++++++++++++++++++    ++++$$    OOOOOO",
"OOOOOO    $$++++    ....++++++++++++++++++++    ++++$$    OOOOOO",
"OOOOOO    ..++++    ....++XXXXXXXXXXXX++++++    ++++++    OOOOOO",
"OOOOOO    ..++++    ....++XXXXXXXXXXXX++++++    ++++++    OOOOOO",
"OOOOOO    $$..$$    ....XX............XX++++    $$..$$    OOOOOO",
"OOOOOO    $$..$$    ....XX............XX++++    $$..$$    OOOOOO",
"OOOOOO              ....XX............XX++++              OOOOOO",
"OOOOOO              ....XX............XX++++              OOOOOO",
"OOOOOOOO            ......            ......            OOOOOOOO",
"OOOOOOOO            ......            ......            OOOOOOOO",
"OOOOOOOOOOOOOOOO    ......            ......    OOOOOOOOOOOOOOOO",
"OOOOOOOOOOOOOOOO    ......            ......    OOOOOOOOOOOOOOOO",
"OOOOOOOOOOOOOOOO              OOOO              OOOOOOOOOOOOOOOO",
"OOOOOOOOOOOOOOOO              OOOO              OOOOOOOOOOOOOOOO",
"OOOOOOOOOOOOOOOO              OOOO              OOOOOOOOOOOOOOOO",
"OOOOOOOOOOOOOOOO              OOOO              OOOOOOOOOOOOOOOO",
"OOOOOOOOOOOOOOOOOOOOOOOOOOOOOOOOOOOOOOOOOOOOOOOOOOOOOOOOOOOOOOOO",
"OOOOOOOOOOOOOOOOOOOOOOOOOOOOOOOOOOOOOOOOOOOOOOOOOOOOOOOOOOOOOOOO",
"OOOOOOOOOOOOOOOOOOOOOOOOOOOOOOOOOOOOOOOOOOOOOOOOOOOOOOOOOOOOOOOO",
"OOOOOOOOOOOOOOOOOOOOOOOOOOOOOOOOOOOOOOOOOOOOOOOOOOOOOOOOOOOOOOOO",
"OOOOOOOOOOOOOOOOOOOOOOOOOOOOOOOOOOOOOOOOOOOOOOOOOOOOOOOOOOOOOOOO",
"OOOOOOOOOOOOOOOOOOOOOOOOOOOOOOOOOOOOOOOOOOOOOOOOOOOOOOOOOOOOOOOO"
};
