/* XPM */
static char *pixil_frame_0_30_1741015635[] = {
/* columns rows colors chars-per-pixel */
"64 64 7 1 ",
"  c #1F111F",
". c #211321",
"X c #8BC34A",
"o c #B4B4B4",
"O c #C7DCBA",
"+ c #CBE6BA",
"@ c #D3F9BC",
/* pixels */
"XXXXXXXXXXXXXXXXXXXXXXXXXXXXXXXXXXXXXXXXXXXXXXXXXXXXXXXXXXXXXXXX",
"XXXXXXXXXXXXXXXXXXXXXXXXXXXXXXXXXXXXXXXXXXXXXXXXXXXXXXXXXXXXXXXX",
"XXXXXXXXXXXXXXXXXXXXXXXXXXXXXXXXXXXXXXXXXXXXXXXXXXXXXXXXXXXXXXXX",
"XXXXXXXXXXXXXXXXXXXXXXXXXXXXXXXXXXXXXXXXXXXXXXXXXXXXXXXXXXXXXXXX",
"XXXXXXXXXXXXXXXXXXXXXXXXXXXXXXXXXXXXXXXXXXXXXXXXXXXXXXXXXXXXXXXX",
"XXXXXXXXXXXXXXXXXXXXXXXXXXXXXXXXXXXXXXXXXXXXXXXXXXXXXXXXXXXXXXXX",
"XXXXXXXXXXXXXXXXXX                            XXXXXXXXXXXXXXXXXX",
"XXXXXXXXXXXXXXXXXX                            XXXXXXXXXXXXXXXXXX",
"XXXXXXXXXXXXXXXXXX                            XXXXXXXXXXXXXXXXXX",
"XXXXXXXXXXXXXXXXXX                            XXXXXXXXXXXXXXXXXX",
"XXXXXXXXXXXXXXXX      oo@@@@@@@@@@@@@@@@@@      XXXXXXXXXXXXXXXX",
"XXXXXXXXXXXXXXXX      oo@@@@@@@@@@@@@@@@@@      XXXXXXXXXXXXXXXX",
"XXXXXXXXXXXXXXXX      oo@@@@@@@@@@@@@@@@@@      XXXXXXXXXXXXXXXX",
"XXXXXXXXXXXXXXXX      oo@@@@@@@@@@@@@@@@@@      XXXXXXXXXXXXXXXX",
"XXXXXXXXXXXXXXXX    oooo@@@@@@@@@@@@@@@@@@@@    XXXXXXXXXXXXXXXX",
"XXXXXXXXXXXXXXXX    oooo@@@@@@@@@@@@@@@@@@@@    XXXXXXXXXXXXXXXX",
"XXXXXXXXXXXXXXXX    oooo@@@@@@@@@@@@@@@@@@@@    XXXXXXXXXXXXXXXX",
"XXXXXXXXXXXXXXXX    oooo@@@@@@@@@@@@@@@@@@@@    XXXXXXXXXXXXXXXX",
"XXXXXXXXXXXXXXXX    oooo@@@@@@@@@@@@@@@@@@@@    XXXXXXXXXXXXXXXX",
"XXXXXXXXXXXXXXXX    oooo@@@@@@@@@@@@@@@@@@@@    XXXXXXXXXXXXXXXX",
"XXXXXXXXXXXXXXXX    oooo....@@@@@@@@....@@@@    XXXXXXXXXXXXXXXX",
"XXXXXXXXXXXXXXXX    oooo....@@@@@@@@....@@@@    XXXXXXXXXXXXXXXX",
"XXXXXXXXXXXXXXXX    oooo....@@@@@@@@....@@@@    XXXXXXXXXXXXXXXX",
"XXXXXXXXXXXXXXXX    oooo....@@@@@@@@....@@@@    XXXXXXXXXXXXXXXX",
"XXXXXXXXXXXXXXXX    oooo....@@@@@@@@....@@@@    XXXXXXXXXXXXXXXX",
"XXXXXXXXXXXXXXXX    oooo....@@@@@@@@....@@@@    XXXXXXXXXXXXXXXX",
"XXXXXXXXXXXXXXXX    oooo@@@@@@@@@@@@@@@@@@@@    XXXXXXXXXXXXXXXX",
"XXXXXXXXXXXXXXXX    oooo@@@@@@@@@@@@@@@@@@@@    XXXXXXXXXXXXXXXX",
"XXXXXXXXXXXXXXXX    oooo@@@@@@@@@@@@@@@@@@@@    XXXXXXXXXXXXXXXX",
"XXXXXXXXXXXXXXXX    oooo@@@@@@@@@@@@@@@@@@@@    XXXXXXXXXXXXXXXX",
"XXXXXXXXXXXXXXXX          @@@@@@@@@@@@          XXXXXXXXXXXXXXXX",
"XXXXXXXXXXXXXXXX          @@@@@@@@@@@@          XXXXXXXXXXXXXXXX",
"XXXXXXXXXXXXXXXX            @@@@@@@@            XXXXXXXXXXXXXXXX",
"XXXXXXXXXXXXXXXX            @@@@@@@@            XXXXXXXXXXXXXXXX",
"XXXXXXXX            oooo@@            @@@@@@            XXXXXXXX",
"XXXXXXXX            oooo@@            @@@@@@            XXXXXXXX",
"XXXXXX              oooo@@@@        @@@@@@@@              XXXXXX",
"XXXXXX              oooo@@@@        @@@@@@@@              XXXXXX",
"XXXXXX    oo@@@@    oooo@@@@@@@@@@@@@@@@@@@@    @@@@@@    XXXXXX",
"XXXXXX    oo@@@@    oooo@@@@@@@@@@@@@@@@@@@@    @@@@@@    XXXXXX",
"XXXXXX    oo@@@@    oooo@@@@@@@@@@@@@@@@@@@@    @@@@@@    XXXXXX",
"XXXXXX    oo@@@@    oooo@@@@@@@@@@@@@@@@@@@@    @@@@@@    XXXXXX",
"XXXXXX    oo@@@@    oooo@@@@@@@@@@@@@@@@@@@@    @@@@@@    XXXXXX",
"XXXXXX    oo@@@@    oooo@@@@@@@@@@@@@@@@@@@@    @@@@@@    XXXXXX",
"XXXXXX    oo@@@@    oooo@@++++++++++++@@@@@@    @@@@@@    XXXXXX",
"XXXXXX    oo@@@@    oooo@@++++++++++++@@@@@@    @@@@@@    XXXXXX",
"XXXXXX    oooooo    oooo++OOOOOOOOOOOO++@@@@    oooooo    XXXXXX",
"XXXXXX    oooooo    oooo++OOOOOOOOOOOO++@@@@    oooooo    XXXXXX",
"XXXXXX              oooo++OOOOOOOOOOOO++@@@@              XXXXXX",
"XXXXXX              oooo++OOOOOOOOOOOO++@@@@              XXXXXX",
"XXXXXXXX            oooooo            oooooo            XXXXXXXX",
"XXXXXXXX            oooooo            oooooo            XXXXXXXX",
"XXXXXXXXXXXXXXXX    oooooo            oooooo    XXXXXXXXXXXXXXXX",
"XXXXXXXXXXXXXXXX    oooooo            oooooo    XXXXXXXXXXXXXXXX",
"XXXXXXXXXXXXXXXX              XXXX              XXXXXXXXXXXXXXXX",
"XXXXXXXXXXXXXXXX              XXXX              XXXXXXXXXXXXXXXX",
"XXXXXXXXXXXXXXXX              XXXX              XXXXXXXXXXXXXXXX",
"XXXXXXXXXXXXXXXX              XXXX              XXXXXXXXXXXXXXXX",
"XXXXXXXXXXXXXXXXXXXXXXXXXXXXXXXXXXXXXXXXXXXXXXXXXXXXXXXXXXXXXXXX",
"XXXXXXXXXXXXXXXXXXXXXXXXXXXXXXXXXXXXXXXXXXXXXXXXXXXXXXXXXXXXXXXX",
"XXXXXXXXXXXXXXXXXXXXXXXXXXXXXXXXXXXXXXXXXXXXXXXXXXXXXXXXXXXXXXXX",
"XXXXXXXXXXXXXXXXXXXXXXXXXXXXXXXXXXXXXXXXXXXXXXXXXXXXXXXXXXXXXXXX",
"XXXXXXXXXXXXXXXXXXXXXXXXXXXXXXXXXXXXXXXXXXXXXXXXXXXXXXXXXXXXXXXX",
"XXXXXXXXXXXXXXXXXXXXXXXXXXXXXXXXXXXXXXXXXXXXXXXXXXXXXXXXXXXXXXXX"
};
