/* XPM */
static char *pixil_frame_0_29_1741015077[] = {
/* columns rows colors chars-per-pixel */
"64 64 6 1 ",
"  c #1F111F",
". c #8BC34A",
"X c #B4B4B4",
"o c #C7DCBA",
"O c #CBE6BA",
"+ c #D3F9BC",
/* pixels */
"................................................................",
"................................................................",
"................................................................",
"................................................................",
"................................................................",
"................................................................",
"..................                            ..................",
"..................                            ..................",
"..................                            ..................",
"..................                            ..................",
"................      XX++++++++++++++++++      ................",
"................      XX++++++++++++++++++      ................",
"................      XX++++++++++++++++++      ................",
"................      XX++++++++++++++++++      ................",
"................    XXXX++++++++++++++++++++    ................",
"................    XXXX++++++++++++++++++++    ................",
"................    XXXX++++++++++++++++++++    ................",
"................    XXXX++++++++++++++++++++    ................",
"................    XXXX++++++++++++++++++++    ................",
"................    XXXX++++++++++++++++++++    ................",
"................    XXXX++++++++++++++++++++    ................",
"................    XXXX++++++++++++++++++++    ................",
"................    XXXX++++++++++++++++++++    ................",
"................    XXXX++++++++++++++++++++    ................",
"................    XXXX++++++++++++++++++++    ................",
"................    XXXX++++++++++++++++++++    ................",
"................    XXXX++++++++++++++++++++    ................",
"................    XXXX++++++++++++++++++++    ................",
"................    XXXX++++++++++++++++++++    ................",
"................    XXXX++++++++++++++++++++    ................",
"................          ++++++++++++          ................",
"................          ++++++++++++          ................",
"................            ++++++++            ................",
"................            ++++++++            ................",
"........            XXXX++            ++++++            ........",
"........            XXXX++            ++++++            ........",
"......              XXXX++++        ++++++++              ......",
"......              XXXX++++        ++++++++              ......",
"......    XX++++    XXXX++++++++++++++++++++    ++++++    ......",
"......    XX++++    XXXX++++++++++++++++++++    ++++++    ......",
"......    XX++++    XXXX++++++++++++++++++++    ++++++    ......",
"......    XX++++    XXXX++++++++++++++++++++    ++++++    ......",
"......    XX++++    XXXX++++++++++++++++++++    ++++++    ......",
"......    XX++++    XXXX++++++++++++++++++++    ++++++    ......",
"......    XX++++    XXXX++OOOOOOOOOOOO++++++    ++++++    ......",
"......    XX++++    XXXX++OOOOOOOOOOOO++++++    ++++++    ......",
"......    XXXXXX    XXXXOOooooooooooooOO++++    XXXXXX    ......",
"......    XXXXXX    XXXXOOooooooooooooOO++++    XXXXXX    ......",
"......              XXXXOOooooooooooooOO++++              ......",
"......              XXXXOOooooooooooooOO++++              ......",
"........            XXXXXX            XXXXXX            ........",
"........            XXXXXX            XXXXXX            ........",
"................    XXXXXX            XXXXXX    ................",
"................    XXXXXX            XXXXXX    ................",
"................              ....              ................",
"................              ....              ................",
"................              ....              ................",
"................              ....              ................",
"................................................................",
"................................................................",
"................................................................",
"................................................................",
"................................................................",
"................................................................"
};
