/* XPM */
static char *pixil_frame_0_1_1740903025[] = {
/* columns rows colors chars-per-pixel */
"64 64 9 1 ",
"  c #211321",
". c #8BC34A",
"X c #B4B4B4",
"o c #B6B6B6",
"O c #C7DCBA",
"+ c #CAE4BA",
"@ c #CBE6BA",
"# c #D2F8BC",
"$ c #D3F9BC",
/* pixels */
"................................................................",
"................................................................",
"................................................................",
"................................................................",
"................................................................",
"................................................................",
"..................                          ....................",
"..................                          ....................",
"..................                          ....................",
"..................                          ....................",
"..............        $$$$$$$$$$$$$$$$$$        ................",
"..............        $$$$$$$$$$$$$$$$$$        ................",
"..............        $$$$$$$$$$$$$$$$$$        ................",
"..............        $$$$$$$$$$$$$$$$$$        ................",
"..............    XXXX$$$$$$$$$$$$$$$$$$$$$$    ................",
"..............    XXXX$$$$$$$$$$$$$$$$$$$$$$    ................",
"..............    XXXX$$$$$$$$$$$$$$$$$$$$$$    ................",
"..............    XXXX$$$$$$$$$$$$$$$$$$$$$$    ................",
"..............    XXXX$$$$$$$$$$$$$$$$$$$$$$    ................",
"..............    XXXX$$$$$$$$$$$$$$$$$$$$$$    ................",
"..............    XX    $$$$$$$$    $$$$$$$$    ................",
"..............    XX    $$$$$$$$    $$$$$$$$    ................",
"..............    XX    $$$$$$$$    $$$$$$$$    ................",
"..............    XX    $$$$$$$$    $$$$$$$$    ................",
"..............    XX    $$$$$$$$    $$$$$$$$    ................",
"..............    XX    $$$$$$$$    $$$$$$$$    ................",
"..............    XXXX$$$$$$$$$$$$$$$$$$$$$$    ................",
"..............    XXXX$$$$$$$$$$$$$$$$$$$$$$    ................",
"..............    XXXX$$$$$$$$$$$$$$$$$$$$$$    ................",
"..............    XXXX$$$$$$$$$$$$$$$$$$$$$$    ................",
"..............          $$$$$$$$$$$$            ................",
"..............          $$$$$$$$$$$$            ................",
"..............          $$$$$$$$$$$$            ................",
"..............          $$$$$$$$$$$$            ................",
"......            XXXX$$            $$$$$$            ..........",
"......            XXXX$$            $$$$$$            ..........",
"....              XXXX$$            $$$$                ........",
"....              XXXX$$            $$$$                ........",
"....    XX$$$$    XXXX$$$$$$$$$$$$$$$$$$    XX$$$$$$    ........",
"....    XX$$$$    XXXX$$$$$$$$$$$$$$$$$$    XX$$$$$$    ........",
"....    XX$$$$    XXXX$$$$$$$$$$$$$$$$$$    XX$$$$$$    ........",
"....    XX$$$$    XXXX$$$$$$$$$$$$$$$$$$    XX$$$$$$    ........",
"....    XX$$$$    XXXX$$$$$$$$$$$$$$$$$$    XX$$$$$$    ........",
"....    XX$$$$    XXXX$$$$$$$$$$$$$$$$$$    XX$$$$$$    ........",
"....    XXXXXX    XXXX$$$$@@@@@@@@@@$$##    XXXXXXXX    ........",
"....    XXXXXX    XXXX$$$$@@@@@@@@@@##$$    XXXXXXXX    ........",
"....              XXXX$$@@OOOOOOOOOO++++                ........",
"....              XXXX$$@@OOOOOOOOOO++++                ........",
"....              XXXX$$@@OOOOOOOOOO+@@@                ........",
"....              XXXX$$@@OOOOOOOOOO+@@@                ........",
"..............    XXXXXXoo          ooooXXXX    ................",
"..............    XXXXXXoo          ooooXXXX    ................",
"..............    XXXXXXXX          XXooXXXX    ................",
"..............    XXXXXXXX          XXooXXXX    ................",
"..............                ....              ................",
"..............                ....              ................",
"..............                ....              ................",
"..............                ....              ................",
"................................................................",
"................................................................",
"................................................................",
"................................................................",
"................................................................",
"................................................................"
};
